<svg width="32" height="30" viewBox="0 0 32 30" fill="none" xmlns="http://www.w3.org/2000/svg">
<g filter="url(#filter0_d_117_152)">
<path fill-rule="evenodd" clip-rule="evenodd" d="M27.4961 11.1786C27.4961 5.23015 22.3468 0.406982 15.9961 0.406982C9.64542 0.406982 4.49609 5.23015 4.49609 11.1786C4.49609 16.5547 8.70078 21.011 14.1992 21.8198V14.2932H11.2785V11.1786H14.1992V8.80544C14.1992 6.1063 15.9165 4.61415 18.543 4.61415C19.8014 4.61415 21.1177 4.82477 21.1177 4.82477V7.47583H19.6669C18.2391 7.47583 17.7925 8.30582 17.7925 9.15889V11.1786H20.9817L20.4724 14.2932H17.793V21.8208C23.2914 21.0124 27.4961 16.5562 27.4961 11.1786Z" fill="white"/>
</g>
<defs>
<filter id="filter0_d_117_152" x="0.496094" y="0.406982" width="31" height="29.4138" filterUnits="userSpaceOnUse" color-interpolation-filters="sRGB">
<feFlood flood-opacity="0" result="BackgroundImageFix"/>
<feColorMatrix in="SourceAlpha" type="matrix" values="0 0 0 0 0 0 0 0 0 0 0 0 0 0 0 0 0 0 127 0" result="hardAlpha"/>
<feOffset dy="4"/>
<feGaussianBlur stdDeviation="2"/>
<feComposite in2="hardAlpha" operator="out"/>
<feColorMatrix type="matrix" values="0 0 0 0 0 0 0 0 0 0 0 0 0 0 0 0 0 0 0.25 0"/>
<feBlend mode="normal" in2="BackgroundImageFix" result="effect1_dropShadow_117_152"/>
<feBlend mode="normal" in="SourceGraphic" in2="effect1_dropShadow_117_152" result="shape"/>
</filter>
</defs>
</svg>
