<svg width="23" height="18" viewBox="0 0 23 18" fill="none" xmlns="http://www.w3.org/2000/svg">
<path d="M22.391 2.2433C21.5856 2.59301 20.7334 2.8234 19.8614 2.9272C20.7778 2.39098 21.467 1.53909 21.7996 0.531316C20.9332 1.03758 19.9869 1.39279 19.0012 1.58175C18.5862 1.14706 18.087 0.801258 17.534 0.565352C16.9811 0.329447 16.3859 0.20837 15.7846 0.20948C13.3503 0.20948 11.3804 2.14943 11.3804 4.54085C11.3786 4.87349 11.4168 5.20514 11.494 5.52871C9.74841 5.44694 8.03916 5.00196 6.47555 4.22226C4.91195 3.44256 3.52843 2.34529 2.4135 1.00066C2.02236 1.65958 1.8155 2.41139 1.81455 3.17752C1.81455 4.67942 2.59869 6.00699 3.78273 6.78476C3.08122 6.76813 2.39408 6.58259 1.77966 6.2439V6.29754C1.77966 8.39841 3.30053 10.1462 5.31344 10.544C4.93491 10.6448 4.54485 10.6959 4.15311 10.696C3.87514 10.6964 3.5978 10.6695 3.32513 10.6155C3.88472 12.3364 5.51339 13.588 7.44265 13.6238C5.87499 14.8311 3.9503 15.4836 1.97111 15.4788C1.6198 15.4783 1.26881 15.4574 0.919922 15.4162C2.93336 16.701 5.27383 17.3806 7.66273 17.3741C15.7752 17.3741 20.2072 10.7719 20.2072 5.04596C20.2072 4.85822 20.2023 4.67048 20.1933 4.48721C21.0536 3.87575 21.7978 3.11589 22.391 2.2433Z" fill="#0152A8"/>
</svg>
