<svg width="23" height="22" viewBox="0 0 23 22" fill="none" xmlns="http://www.w3.org/2000/svg">
<path d="M15.8041 1.99419C17.0329 1.99772 18.2103 2.46901 19.0792 3.30512C19.9481 4.14124 20.4379 5.27424 20.4416 6.45669V15.3807C20.4379 16.5632 19.9481 17.6962 19.0792 18.5323C18.2103 19.3684 17.0329 19.8397 15.8041 19.8432H6.53021C5.30142 19.8397 4.12399 19.3684 3.2551 18.5323C2.3862 17.6962 1.89644 16.5632 1.89277 15.3807V6.45669C1.89644 5.27424 2.3862 4.14124 3.2551 3.30512C4.12399 2.46901 5.30142 1.99772 6.53021 1.99419H15.8041ZM15.8041 0.209473H6.53021C2.95947 0.209473 0.0380859 3.02065 0.0380859 6.45669V15.3807C0.0380859 18.8168 2.95947 21.6279 6.53021 21.6279H15.8041C19.3749 21.6279 22.2962 18.8168 22.2962 15.3807V6.45669C22.2962 3.02065 19.3749 0.209473 15.8041 0.209473Z" fill="#0152A8"/>
<path d="M17.1952 6.45709C16.92 6.45709 16.6511 6.37858 16.4223 6.23149C16.1935 6.0844 16.0152 5.87533 15.9099 5.63072C15.8046 5.38611 15.7771 5.11696 15.8308 4.85728C15.8844 4.59761 16.0169 4.35908 16.2115 4.17187C16.406 3.98465 16.6539 3.85716 16.9238 3.80551C17.1936 3.75386 17.4733 3.78037 17.7275 3.88168C17.9817 3.983 18.199 4.15458 18.3518 4.37472C18.5047 4.59486 18.5863 4.85368 18.5863 5.11844C18.5867 5.29434 18.551 5.46858 18.4812 5.63117C18.4114 5.79375 18.309 5.94147 18.1797 6.06586C18.0505 6.19024 17.897 6.28883 17.728 6.35597C17.559 6.42311 17.378 6.45747 17.1952 6.45709ZM11.1671 7.34921C11.9008 7.34921 12.6181 7.55858 13.2282 7.95085C13.8383 8.34312 14.3138 8.90066 14.5945 9.55297C14.8753 10.2053 14.9488 10.9231 14.8057 11.6156C14.6625 12.3081 14.3092 12.9442 13.7903 13.4434C13.2715 13.9427 12.6105 14.2827 11.8908 14.4204C11.1712 14.5582 10.4253 14.4875 9.74738 14.2173C9.06949 13.9471 8.49009 13.4895 8.08245 12.9025C7.6748 12.3154 7.45722 11.6252 7.45722 10.9191C7.45827 9.97263 7.84947 9.0652 8.54498 8.39593C9.24048 7.72666 10.1835 7.35022 11.1671 7.34921ZM11.1671 5.5645C10.0665 5.5645 8.99067 5.87854 8.07559 6.46691C7.1605 7.05529 6.44728 7.89156 6.02612 8.86999C5.60495 9.84842 5.49475 10.9251 5.70946 11.9638C5.92417 13.0024 6.45414 13.9565 7.23236 14.7054C8.01057 15.4543 9.00208 15.9642 10.0815 16.1708C11.1609 16.3775 12.2797 16.2714 13.2965 15.8661C14.3133 15.4609 15.1824 14.7745 15.7938 13.894C16.4053 13.0134 16.7316 11.9782 16.7316 10.9191C16.7316 9.49898 16.1454 8.13702 15.1018 7.13283C14.0582 6.12865 12.6429 5.5645 11.1671 5.5645Z" fill="#0152A8"/>
</svg>
