<svg width="31" height="30" viewBox="0 0 31 30" fill="none" xmlns="http://www.w3.org/2000/svg">
<g filter="url(#filter0_d_117_135)">
<path d="M20.4789 2.1917C21.7077 2.19523 22.8851 2.66652 23.754 3.50263C24.6229 4.33875 25.1127 5.47175 25.1164 6.6542V15.5782C25.1127 16.7607 24.6229 17.8937 23.754 18.7298C22.8851 19.5659 21.7077 20.0372 20.4789 20.0407H11.205C9.97622 20.0372 8.7988 19.5659 7.9299 18.7298C7.06101 17.8937 6.57124 16.7607 6.56757 15.5782V6.6542C6.57124 5.47175 7.06101 4.33875 7.9299 3.50263C8.7988 2.66652 9.97622 2.19523 11.205 2.1917H20.4789ZM20.4789 0.406982H11.205C7.63427 0.406982 4.71289 3.21816 4.71289 6.6542V15.5782C4.71289 19.0143 7.63427 21.8255 11.205 21.8255H20.4789C24.0497 21.8255 26.971 19.0143 26.971 15.5782V6.6542C26.971 3.21816 24.0497 0.406982 20.4789 0.406982Z" fill="white"/>
<path d="M21.5926 5.67731C21.3175 5.67731 21.0485 5.5988 20.8198 5.45171C20.591 5.30461 20.4127 5.09554 20.3074 4.85094C20.2021 4.60633 20.1745 4.33717 20.2282 4.0775C20.2819 3.81782 20.4144 3.5793 20.6089 3.39208C20.8035 3.20487 21.0514 3.07737 21.3212 3.02572C21.5911 2.97407 21.8708 3.00058 22.125 3.1019C22.3792 3.20322 22.5965 3.3748 22.7493 3.59494C22.9022 3.81508 22.9838 4.07389 22.9838 4.33865C22.9842 4.51456 22.9484 4.6888 22.8787 4.85138C22.8089 5.01397 22.7064 5.16169 22.5772 5.28607C22.4479 5.41045 22.2944 5.50904 22.1255 5.57618C21.9565 5.64332 21.7754 5.67769 21.5926 5.67731ZM15.5645 6.56943C16.2983 6.56943 17.0155 6.7788 17.6256 7.17107C18.2357 7.56333 18.7112 8.12087 18.992 8.77319C19.2728 9.4255 19.3463 10.1433 19.2031 10.8358C19.06 11.5283 18.7066 12.1644 18.1878 12.6636C17.669 13.1629 17.0079 13.5029 16.2883 13.6406C15.5687 13.7784 14.8227 13.7077 14.1448 13.4375C13.467 13.1673 12.8876 12.7097 12.4799 12.1227C12.0723 11.5356 11.8547 10.8454 11.8547 10.1393C11.8557 9.19285 12.2469 8.28541 12.9424 7.61615C13.6379 6.94688 14.5809 6.57044 15.5645 6.56943ZM15.5645 4.78471C14.464 4.78471 13.3881 5.09876 12.473 5.68713C11.558 6.2755 10.8447 7.11178 10.4236 8.09021C10.0024 9.06864 9.89221 10.1453 10.1069 11.184C10.3216 12.2227 10.8516 13.1768 11.6298 13.9256C12.408 14.6745 13.3995 15.1845 14.479 15.3911C15.5584 15.5977 16.6772 15.4916 17.694 15.0864C18.7108 14.6811 19.5798 13.9948 20.1913 13.1142C20.8027 12.2336 21.1291 11.1984 21.1291 10.1393C21.1291 8.7192 20.5428 7.35723 19.4993 6.35305C18.4557 5.34886 17.0403 4.78471 15.5645 4.78471Z" fill="white"/>
</g>
<defs>
<filter id="filter0_d_117_135" x="0.712891" y="0.406982" width="30.2578" height="29.4185" filterUnits="userSpaceOnUse" color-interpolation-filters="sRGB">
<feFlood flood-opacity="0" result="BackgroundImageFix"/>
<feColorMatrix in="SourceAlpha" type="matrix" values="0 0 0 0 0 0 0 0 0 0 0 0 0 0 0 0 0 0 127 0" result="hardAlpha"/>
<feOffset dy="4"/>
<feGaussianBlur stdDeviation="2"/>
<feComposite in2="hardAlpha" operator="out"/>
<feColorMatrix type="matrix" values="0 0 0 0 0 0 0 0 0 0 0 0 0 0 0 0 0 0 0.25 0"/>
<feBlend mode="normal" in2="BackgroundImageFix" result="effect1_dropShadow_117_135"/>
<feBlend mode="normal" in="SourceGraphic" in2="effect1_dropShadow_117_135" result="shape"/>
</filter>
</defs>
</svg>
