<svg width="22" height="18" viewBox="0 0 22 18" fill="none" xmlns="http://www.w3.org/2000/svg">
<path d="M21.9672 2.56532C21.1617 2.91503 20.3096 3.14543 19.4376 3.24923C20.354 2.713 21.0431 1.86112 21.3758 0.853337C20.5094 1.3596 19.5631 1.71482 18.5774 1.90377C18.1623 1.46908 17.6632 1.12328 17.1102 0.887374C16.5572 0.651468 15.962 0.530391 15.3608 0.531502C12.9265 0.531502 10.9565 2.47146 10.9565 4.86287C10.9548 5.19551 10.9929 5.52716 11.0701 5.85073C9.32458 5.76896 7.61533 5.32399 6.05172 4.54428C4.48812 3.76458 3.1046 2.66731 1.98967 1.32268C1.59853 1.9816 1.39167 2.73341 1.39072 3.49954C1.39072 5.00144 2.17486 6.32901 3.3589 7.10678C2.65739 7.09015 1.97026 6.90461 1.35583 6.56592V6.61956C1.35583 8.72043 2.8767 10.4682 4.88961 10.866C4.51108 10.9668 4.12102 11.0179 3.72928 11.018C3.45131 11.0185 3.17397 10.9915 2.9013 10.9375C3.46089 12.6584 5.08956 13.91 7.01882 13.9458C5.45116 15.1531 3.52647 15.8056 1.54728 15.8008C1.19597 15.8003 0.844983 15.7794 0.496094 15.7382C2.50953 17.023 4.85 17.7026 7.2389 17.6961C15.3514 17.6961 19.7834 11.094 19.7834 5.36798C19.7834 5.18024 19.7784 4.9925 19.7695 4.80923C20.6297 4.19777 21.3739 3.43791 21.9672 2.56532Z" fill="white"/>
</svg>
